<?xml version="1.0" encoding="UTF-8" standalone="no"?>
<!-- Created with Inkscape (http://www.inkscape.org/) -->

<svg
   width="48mm"
   height="48mm"
   viewBox="0 0 48 48"
   version="1.1"
   id="svg183"
   inkscape:version="1.2.1 (9c6d41e410, 2022-07-14, custom)"
   sodipodi:docname="favicon.svg"
   inkscape:export-filename="favicon.png"
   inkscape:export-xdpi="96"
   inkscape:export-ydpi="96"
   xmlns:inkscape="http://www.inkscape.org/namespaces/inkscape"
   xmlns:sodipodi="http://sodipodi.sourceforge.net/DTD/sodipodi-0.dtd"
   xmlns="http://www.w3.org/2000/svg"
   xmlns:svg="http://www.w3.org/2000/svg">
  <sodipodi:namedview
     id="namedview185"
     pagecolor="#ffffff"
     bordercolor="#000000"
     borderopacity="0.25"
     inkscape:showpageshadow="2"
     inkscape:pageopacity="0.0"
     inkscape:pagecheckerboard="0"
     inkscape:deskcolor="#d1d1d1"
     inkscape:document-units="mm"
     showgrid="false"
     inkscape:zoom="2.3786088"
     inkscape:cx="376.06016"
     inkscape:cy="163.12056"
     inkscape:window-width="2547"
     inkscape:window-height="1373"
     inkscape:window-x="0"
     inkscape:window-y="0"
     inkscape:window-maximized="1"
     inkscape:current-layer="g353" />
  <defs
     id="defs180">
    <linearGradient
       id="_Linear1"
       x1="0"
       y1="0"
       x2="1"
       y2="0"
       gradientUnits="userSpaceOnUse"
       gradientTransform="matrix(-3.9042,511.45,-511.45,-3.9042,231.845,-10.7145)"
       name="Layer %{number}"
       zoom="1"
       data-layer-id="4631008380493">
      <stop
         offset="0"
         style="stop-color: rgb(211, 160, 10); stop-opacity: 1;"
         id="stop63" />
      <stop
         offset="0.5"
         style="stop-color: rgb(255, 224, 132); stop-opacity: 1;"
         id="stop65" />
      <stop
         offset="1"
         style="stop-color: rgb(211, 160, 10); stop-opacity: 1;"
         id="stop67" />
    </linearGradient>
  </defs>
  <g
     inkscape:label="Layer 1"
     inkscape:groupmode="layer"
     id="layer1">
    <g
       id="g353"
       transform="matrix(0.09459972,0,0,0.09460493,0.05819719,0.17685929)">
      <path
         d="m 290.416,2.979 c 0.337,0.112 0.674,0.112 1.011,0.224 0.449,0 0.898,0.112 1.347,0.225 103.172,16.727 185.351,96.212 206.008,197.925 h -0.112 c 1.684,8.644 3.031,17.289 3.929,26.045 h 0.112 c 0.786,8.084 1.123,16.279 1.123,24.474 0,118.216 -81.393,217.347 -191.189,244.516 -16.166,4.041 -32.894,6.399 -50.071,7.185 -8.644,0.337 -17.401,0.224 -26.158,-0.337 h -0.786 c -13.022,-0.898 -25.596,-2.694 -37.946,-5.389 -16.39,-3.592 -32.22,-8.869 -47.151,-15.493 -0.337,-0.112 -0.674,-0.224 -0.898,-0.336 -0.786,-0.337 -1.572,-0.674 -2.246,-1.011 C 31.98,428.579 -27.858,296.554 12.67,173.286 c 2.47,-7.522 5.277,-14.819 8.42,-22.004 h 0.112 c 3.032,-6.848 6.287,-13.696 9.88,-20.208 l -0.113,-0.112 C 81.601,38.23 185.784,-13.3 290.416,2.979 Z m 57.256,435.255 c -2.245,-0.786 -4.491,-1.572 -6.736,-2.245 -3.929,-1.348 -17.401,-6.287 -20.545,-3.032 0,0 3.144,3.481 5.838,6.175 2.694,2.582 6.961,0.449 6.961,0.449 0,0 -0.45,0.561 -1.123,1.572 5.276,-0.786 10.441,-1.796 15.605,-2.919 z m -41.539,17.401 c -15.492,1.909 -36.598,-1.684 -54.449,-9.655 -19.646,-8.756 -36.037,-29.301 -47.151,-41.089 -11.115,-11.788 -30.761,-27.954 -49.51,-30.649 -12.012,-1.796 -22.79,0.337 -29.638,1.909 -9.879,2.47 -19.422,5.613 -28.74,9.318 1.684,2.47 3.368,4.827 5.164,7.185 5.95,-2.245 12.013,-4.154 18.187,-5.95 v 0.337 c 2.133,-0.449 4.828,-0.786 8.084,-0.786 11.675,-0.337 21.891,-1.011 40.079,7.858 18.074,8.869 52.877,45.58 78.923,61.971 26.045,16.391 56.806,14.819 56.806,14.819 h 0.786 c 12.911,-5.388 25.26,-11.9 37.048,-19.422 -11.564,2.133 -23.015,3.368 -35.589,4.154 z M 118.874,366.496 c 1.684,-0.561 3.817,-1.123 6.623,-1.796 0.337,-0.113 0.674,-0.113 0.899,-0.225 0.561,-0.112 1.122,-0.224 1.571,-0.337 v 0.113 c 9.767,-1.684 22.453,-1.348 22.453,-1.348 0,0 -13.696,-40.977 -13.471,-44.008 0.224,-3.143 12.461,-23.576 12.349,-25.709 0,-2.133 -54.225,-69.605 -53.663,-70.952 0.449,-1.347 7.185,-6.399 8.307,-5.389 0.674,0.562 1.684,2.133 2.358,3.256 0.449,0.898 0.786,1.572 0.786,1.572 0,0 0.224,0.224 0.561,0.337 l 22.902,29.413 c -0.449,0.449 0.899,1.572 1.46,1.909 l 5.501,7.185 c 4.041,5.276 9.093,11.563 9.767,12.012 1.347,0.674 3.256,-0.112 3.256,-0.112 -18.075,-38.283 -11.9,-94.64 -11.115,-108.561 0,0 -11.338,0.449 -12.349,-4.154 -1.123,-4.715 0.898,-6.96 0.898,-6.96 0,0 80.495,-2.919 82.74,-3.144 2.246,-0.112 3.481,-6.736 -0.336,-7.746 -3.705,-1.011 -41.09,2.582 -42.662,0 -1.459,-2.582 -5.501,-9.543 -10.889,-34.129 -5.389,-24.586 2.133,-46.703 2.245,-49.285 0.112,-2.582 -4.827,-1.235 -7.073,-1.684 -1.01,-0.112 -1.347,-2.245 -1.347,-4.491 C 82.612,103.232 45.34,187.319 54.658,273.091 h -0.113 c 0.898,8.869 2.358,17.513 4.154,25.933 h 0.225 c 1.796,7.859 3.929,15.83 6.511,23.688 6.287,19.198 14.707,37.048 25.035,53.327 9.206,-3.705 18.749,-6.961 28.404,-9.543 z M 161.198,44.854 c 16.166,-1.123 46.366,-2.358 46.927,-3.593 0.786,-1.571 0,-14.594 0,-20.881 -16.84,6.511 -32.557,14.819 -46.927,24.474 z m 57.705,-28.403 c 0.337,0.336 0.561,0.785 0.561,1.235 0,3.817 1.01,24.474 1.01,24.474 l 41.202,-2.246 c 0,0 3.031,-0.112 3.368,3.929 0.337,4.042 -0.674,6.175 -0.674,6.175 0,0 -0.449,0.898 -1.908,0.786 -1.46,-0.112 -3.031,0.449 -3.031,0.449 -0.786,0.112 -1.572,0.337 -1.796,0.786 -0.225,0.449 -0.337,1.908 -0.337,3.368 0,0.224 0.112,0.561 0.112,0.786 0.225,3.929 1.235,20.432 2.694,29.189 0.449,3.368 1.123,7.522 2.246,12.798 5.052,25.036 14.931,33.792 17.064,36.15 2.133,2.47 -1.01,4.491 -5.613,4.378 -4.603,-0.112 -44.682,0.337 -45.58,2.021 -0.786,1.684 -0.225,5.95 2.021,6.961 1.684,0.785 53.438,-1.348 75.106,-2.807 0,0 0.898,1.908 0,4.827 -0.899,2.807 -4.491,4.716 -5.165,7.298 -1.01,1.796 -2.919,7.409 -2.919,7.409 0,0 72.524,-3.368 73.535,-1.572 1.01,1.797 0.112,9.094 -0.898,9.206 -1.011,0.225 -10.329,-0.224 -14.371,1.347 -4.041,1.684 -13.471,20.096 -14.706,61.185 -1.123,40.978 13.359,99.58 14.706,101.377 1.348,1.684 1.011,3.143 -0.785,3.817 -1.797,0.561 -14.146,1.571 -21.78,1.347 -7.634,-0.225 -21.78,0.224 -20.881,1.235 0.785,1.01 29.189,19.759 28.852,21.892 -0.337,1.908 -3.929,21.892 -5.052,27.954 17.738,5.725 34.578,13.36 50.295,22.678 24.362,-25.373 43.447,-56.47 55.235,-92.171 2.582,-7.858 4.715,-15.717 6.399,-23.688 l 0.225,0.112 c 1.908,-8.532 3.255,-17.176 4.266,-25.933 l -0.225,-0.112 C 464.316,161.386 397.293,52.488 286.262,16.002 c -8.644,-2.807 -17.401,-5.165 -26.045,-6.961 -2.695,-0.112 -5.389,-0.224 -8.196,-0.224 -1.796,0 -3.48,0.112 -5.276,0.112 -8.757,1.796 -17.514,4.154 -26.271,6.96 -0.449,0.225 -1.01,0.449 -1.571,0.562 z m 135.954,395.288 c -0.898,-0.224 -2.021,-0.786 -3.368,-1.459 -2.694,-1.123 -5.389,-2.246 -8.083,-3.256 -6.063,-1.572 -16.054,-2.807 -25.485,-2.133 -11.9,0.786 -19.422,4.266 -19.646,4.94 -0.225,0.561 2.806,4.041 2.806,4.041 0,0 12.574,-3.48 27.842,-1.908 17.289,1.796 28.965,5.838 45.805,14.033 1.01,-0.898 2.021,-1.796 3.031,-2.694 -7.409,-4.267 -15.044,-8.084 -22.902,-11.564 z m 13.809,19.647 c -13.809,-6.287 -30.088,-12.013 -44.682,-13.023 -7.41,-0.561 -15.942,2.807 -15.942,2.807 0,0 2.47,4.041 3.929,3.817 15.717,-2.021 26.27,0.561 48.499,10.328 1.796,-0.449 3.593,-1.01 5.277,-1.459 1.01,-0.786 2.02,-1.572 2.919,-2.47 z M 150.533,166.213 c 0,-0.112 0.112,-0.336 0.112,-0.449 0.898,-2.582 2.807,-3.031 2.807,-3.031 0,0 122.931,-5.276 125.513,-5.501 2.582,-0.337 8.42,-0.898 7.746,2.021 -0.561,3.031 -4.602,15.156 -8.756,41.987 -4.266,26.832 3.592,61.185 3.592,67.921 0,6.736 -0.898,4.266 -9.655,4.379 -8.644,0.112 -97.559,5.838 -100.478,5.725 -14.707,-0.449 -24.811,-52.989 -20.881,-113.052 z m 87.679,257.314 c 0,0 8.308,8.196 16.167,12.237 7.858,4.042 12.798,5.501 14.033,5.501 1.123,0 -2.694,-5.725 -10.777,-11.451 -8.196,-5.838 -15.718,-7.185 -17.626,-7.522 -1.909,-0.337 -1.797,1.235 -1.797,1.235 z m -11.563,-15.829 c 0,0 -3.143,0.449 -3.143,1.684 0,1.122 4.041,5.052 4.041,5.052 0,0 13.248,-1.011 25.26,4.378 12.013,5.389 25.484,19.31 27.73,22.902 2.245,3.705 3.143,3.593 5.389,3.705 2.133,0.112 4.49,-0.786 4.49,-0.786 0,0 -11.226,-17.738 -24.362,-26.719 -13.135,-8.981 -25.708,-11.115 -31.659,-11.002 -5.95,0.224 -7.746,0.786 -7.746,0.786 z m -15.829,-12.125 5.052,6.624 c 0,0 14.819,-3.593 30.985,0 16.166,3.704 34.129,17.064 39.742,24.698 5.613,7.634 12.462,15.044 13.36,16.391 0.673,0.898 5.389,0.786 8.757,0.561 0.449,0 0.898,0 1.347,-0.112 0.786,0 1.459,-0.112 1.684,-0.225 1.122,-0.224 1.235,-1.684 0.673,-2.694 -0.673,-1.123 -25.484,-28.965 -41.763,-39.405 -16.166,-10.441 -40.415,-9.318 -47.713,-8.757 -7.297,0.561 -12.124,2.919 -12.124,2.919 z m -32.782,-77.127 c 0,0 7.634,11.227 13.921,33.568 6.287,22.341 6.511,30.536 6.511,30.536 l 4.716,4.94 c 0,0 13.022,-8.869 41.201,-5.277 28.179,3.593 43.223,19.534 43.223,19.534 0,0 9.318,-4.939 20.881,-6.286 11.563,-1.348 14.931,-0.899 14.931,-0.899 0,0 1.797,-7.185 2.133,-8.869 0.337,-1.684 -32.22,-24.586 -68.706,-41.313 -36.599,-16.728 -78.811,-25.934 -78.811,-25.934 z m -11.227,1.123 c 0,0 5.052,6.174 11.227,22.228 6.175,16.167 8.083,27.842 8.083,30.986 0,3.143 -7.073,-0.898 -15.156,-4.266 l -8.195,-3.48 -7.859,-21.668 z m 0,-21.78 c 0,0 3.705,6.961 4.491,8.083 0.898,1.011 47.601,8.083 91.721,29.975 44.233,21.892 62.645,34.578 63.88,35.701 1.347,1.123 2.245,1.235 2.245,0.112 0,-1.01 0.674,-4.939 0.674,-4.939 0,0 -38.957,-28.292 -78.811,-45.58 -39.742,-17.402 -84.2,-23.352 -84.2,-23.352 z m -9.542,4.828 c 0,0 4.378,5.725 3.255,7.746 -1.122,2.021 -8.195,15.605 -9.654,16.503 -1.572,0.898 -3.256,-5.052 -3.032,-7.297 0.225,-2.246 9.431,-16.952 9.431,-16.952 z m 127.871,0.785 0.673,22.454 c 0,0 4.042,4.041 8.757,5.052 4.603,1.01 36.599,0.561 40.64,0.112 4.042,-0.449 5.165,0.449 5.501,-1.235 0.337,-1.684 -4.153,-21.555 -4.49,-25.597 -0.337,-4.041 -0.337,-4.266 -0.337,-4.266 0,0 -29.077,1.909 -39.069,1.684 -9.879,-0.112 -11.451,0 -11.451,0 z m -24.811,0.899 c 0,0 -3.368,4.939 -2.694,7.634 0.561,2.582 13.471,6.736 14.819,7.858 1.347,1.235 2.469,1.348 2.469,1.348 0,0 -0.561,-17.065 -1.122,-17.963 -0.449,-0.786 -11.227,0 -11.788,0 -0.561,0 -1.684,1.123 -1.684,1.123 z m -29.638,-17.177 c 0,0 22.228,-3.48 40.528,-2.245 18.187,1.122 23.463,0.449 23.576,-2.47 0.224,-2.807 -8.533,-42.437 -7.41,-66.574 1.01,-24.137 3.817,-37.946 7.41,-39.854 3.592,-1.909 46.029,-4.154 46.253,-1.797 0.337,2.358 -7.858,15.605 -9.43,29.077 -1.46,13.472 -2.919,46.029 0,60.961 2.919,15.043 4.266,22.902 2.021,24.025 -2.358,1.122 -99.019,5.613 -101.489,5.052 -2.47,-0.562 -2.582,-3.818 -2.582,-5.052 0,-1.123 1.123,-1.123 1.123,-1.123 z m -42.437,1.347 c 0,0 18.636,-2.245 22.229,-0.224 3.592,2.133 3.368,7.185 2.47,7.185 -0.898,0 -15.044,-2.021 -18.3,-3.593 -3.255,-1.459 -6.399,-3.368 -6.399,-3.368 z M 172.2,56.979 c 0,0 69.044,-4.266 72.412,-4.379 3.368,-0.112 2.47,1.347 2.47,5.277 0,3.817 0.224,24.025 5.837,46.478 5.726,22.453 8.869,22.004 7.073,23.463 -1.796,1.572 -82.515,4.716 -84.424,3.818 -2.021,-0.899 -10.441,-22.79 -9.992,-44.907 0.449,-22.229 6.624,-29.75 6.624,-29.75 z m 215.551,368.906 c -23.239,22.902 -50.857,41.426 -81.505,54 71.289,-23.015 131.014,-78.699 156.162,-155.377 2.582,-7.858 4.715,-15.829 6.511,-23.688 h 0.112 c 1.909,-8.42 3.256,-17.176 4.266,-25.933 h -0.112 C 483.963,175.419 432.208,78.309 342.508,32.392 400.774,68.317 443.21,127.145 457.356,196.413 h -0.225 c 1.796,8.532 3.144,17.289 3.929,26.046 h 0.225 c 0.674,8.083 1.123,16.166 1.123,24.474 0,70.054 -28.516,133.259 -74.657,178.952 z m -267.755,-30.2 v 0.112 c -0.785,0.337 -1.571,0.562 -2.469,0.786 -0.786,0.337 -1.348,0.562 -1.909,0.674 h -0.337 c -2.582,0.898 -5.276,1.684 -7.858,2.694 1.796,2.133 3.592,4.266 5.501,6.399 2.357,-0.673 6.062,-1.459 11.563,-1.571 11.676,-0.337 22.004,-0.898 40.079,7.971 18.075,8.869 52.877,45.467 78.923,61.858 6.736,4.266 13.696,7.297 20.432,9.43 7.634,-1.684 15.156,-3.817 22.566,-6.286 -7.746,-0.899 -19.422,-3.481 -33.119,-9.319 -17.625,-7.634 -43.559,-28.066 -51.53,-36.935 -7.971,-8.869 -27.393,-29.301 -49.958,-35.252 -16.391,-4.266 -26.27,-2.245 -31.884,-0.561 z M 88.225,388.949 C 60.608,348.533 44.329,299.585 44.329,246.933 c 0,-8.308 0.449,-16.503 1.235,-24.587 h 0.112 c 0.898,-8.756 2.133,-17.401 3.93,-25.933 H 49.493 C 63.527,127.145 106.075,68.205 164.341,32.392 74.529,78.309 22.774,175.419 33.664,274.775 l -0.112,0.112 c 0.898,8.757 2.357,17.401 4.153,25.933 l 0.225,-0.112 c 1.684,7.971 3.929,15.83 6.511,23.688 25.148,76.678 84.873,132.362 156.162,155.489 -35.139,-14.483 -66.349,-36.599 -91.384,-64.329 -0.786,-0.449 -1.347,-1.122 -1.796,-2.021 -6.849,-7.746 -13.248,-15.941 -19.198,-24.586 z m 31.098,24.586 c 5.838,-1.459 15.043,-2.357 29.077,1.235 22.453,5.95 41.875,26.383 49.846,35.252 7.185,7.971 28.964,25.372 46.141,34.353 -47.601,-10.553 -91.384,-35.139 -125.064,-70.84 z M 139.867,36.209 C 83.398,72.359 42.196,130.288 28.387,198.097 h 0.225 c -1.796,8.532 -3.144,17.289 -3.929,26.046 H 24.57 c -0.786,8.083 -1.235,16.278 -1.235,24.474 0,114.286 76.117,210.723 180.412,241.484 -1.796,-0.337 -3.48,-0.674 -5.164,-1.011 -16.167,-3.592 -31.659,-8.869 -46.366,-15.492 -0.449,-0.225 -0.898,-0.449 -1.347,-0.674 C 67.119,434.529 8.965,349.993 8.965,251.872 c 0,-7.858 0.449,-15.717 1.123,-23.575 H 9.976 c 0.673,-7.41 1.796,-14.82 3.255,-22.341 h 0.113 C 27.489,132.085 75.09,70.001 139.867,36.209 Z m 240.587,9.318 c 49.509,36.375 85.209,90.262 97.895,152.682 h -0.112 c 1.684,8.532 3.031,17.177 3.93,25.934 h 0.112 c 0.786,8.083 1.122,16.278 1.122,24.586 0,111.143 -71.962,205.447 -171.991,238.79 78.025,-19.759 144.486,-77.688 171.43,-159.755 2.582,-7.858 4.715,-15.829 6.512,-23.688 h 0.112 c 1.908,-8.532 3.256,-17.177 4.266,-25.933 l -0.112,-0.113 C 503.722,185.299 459.264,94.588 380.454,45.527 Z"
         style="clip-rule:evenodd;fill:#ac9d93;fill-rule:evenodd;stroke-linejoin:round;stroke-miterlimit:2"
         name="Layer %{number}"
         zoom="1"
         data-layer-id="6419672880493"
         id="path61" />
    </g>
  </g>
</svg>
